HIERARCHY
ROOT mug3
{
	OFFSET 0.000000 0.000000 0.000000
	CHANNELS 6 Xposition Yposition Zposition Yrotation Xrotation Zrotation
	End Site
	{
		OFFSET 0.000000 0.000000 0.000000
	}
}
MOTION
Frames: 105
Frame Time: 0.008333334
1.414265 3.543290 1.971435 133.393000 5.157288 1.149426 
1.414504 3.543423 1.971804 133.407700 5.156267 1.109962 
1.414510 3.543479 1.972512 133.406700 5.137156 1.120675 
1.414446 3.543502 1.972747 133.392400 5.138120 1.129478 
1.414264 3.543541 1.973141 133.390700 5.134047 1.134395 
1.414041 3.543546 1.973718 133.409200 5.128591 1.132444 
1.413693 3.543550 1.973925 133.418600 5.129310 1.131156 
1.413466 3.543504 1.974103 133.409900 5.119362 1.134629 
1.413514 3.543580 1.974107 133.407000 5.121017 1.136114 
1.413588 3.543633 1.973602 133.443700 5.121589 1.107299 
1.413779 3.543371 1.973018 133.407300 5.135264 1.130249 
1.413706 3.543142 1.971982 133.390900 5.152950 1.148261 
1.413552 3.543016 1.970782 133.370700 5.153079 1.127867 
1.413398 3.542976 1.969450 133.409400 5.216221 1.105070 
1.413111 3.542527 1.968266 133.429600 5.131109 1.125373 
1.413008 3.542474 1.967381 133.431100 5.122672 1.136398 
1.412540 3.542663 1.966230 133.361000 5.246331 1.046819 
1.412625 3.542419 1.965126 133.391400 5.272213 1.031648 
1.412513 3.542401 1.964445 133.387400 5.264305 1.044679 
1.412695 3.542399 1.964127 133.375400 5.274658 1.042533 
1.412764 3.542289 1.964393 133.394200 5.236430 1.052990 
1.412833 3.542181 1.964658 133.412900 5.198198 1.063433 
1.412902 3.542071 1.964923 133.431600 5.159966 1.073863 
1.412827 3.542448 1.965135 133.388700 5.275784 1.026928 
1.413015 3.542403 1.966209 133.413800 5.135155 1.099566 
1.412761 3.542579 1.967280 133.425600 5.119786 1.119288 
1.412721 3.542624 1.967903 133.425700 5.109274 1.132792 
1.412696 3.542698 1.968352 133.414800 5.114166 1.125080 
1.412741 3.542759 1.968999 133.420400 5.163376 1.101044 
1.412846 3.542937 1.969475 133.426200 5.153876 1.110284 
1.412911 3.542947 1.969814 133.413700 5.142353 1.119594 
1.412965 3.542915 1.969955 133.405600 5.145465 1.146275 
1.413020 3.542854 1.969572 133.425900 5.163002 1.106820 
1.412887 3.542748 1.969313 133.420200 5.158794 1.126182 
1.412732 3.542720 1.968881 133.411000 5.150750 1.121629 
1.412826 3.542696 1.968291 133.426100 5.124256 1.123165 
1.412807 3.542531 1.967759 133.421000 5.109521 1.128394 
1.412955 3.542610 1.967216 133.421700 5.172939 1.107648 
1.412923 3.542580 1.966859 133.423300 5.171904 1.100152 
1.413013 3.542528 1.966150 133.403200 5.180315 1.076005 
1.412902 3.542639 1.965683 133.369900 5.252616 1.043745 
1.412913 3.542644 1.965545 133.374900 5.254112 1.037366 
1.412873 3.542616 1.965563 133.378600 5.254473 1.034380 
1.412905 3.542721 1.965789 133.368500 5.251071 1.035895 
1.412922 3.542536 1.966296 133.399800 5.180895 1.087418 
1.412891 3.542563 1.966603 133.399300 5.179663 1.089394 
1.412857 3.542666 1.967270 133.408800 5.173414 1.100030 
1.412801 3.542586 1.967706 133.416500 5.111256 1.126472 
1.412725 3.542797 1.968026 133.407900 5.134421 1.128857 
1.412684 3.542810 1.968277 133.403700 5.148188 1.102210 
1.412811 3.542858 1.968563 133.419600 5.141533 1.113527 
1.412834 3.542827 1.968828 133.428400 5.162442 1.089705 
1.412772 3.542784 1.968689 133.416100 5.145819 1.108356 
1.412783 3.542772 1.968656 133.418900 5.141590 1.109502 
1.412729 3.542724 1.968476 133.421200 5.143517 1.103771 
1.412723 3.542583 1.968236 133.430700 5.129099 1.101613 
1.412730 3.542547 1.967765 133.414200 5.107598 1.118860 
1.412756 3.542541 1.967535 133.421700 5.116409 1.120082 
1.412598 3.542824 1.967016 133.372900 5.239678 1.059278 
1.412601 3.542798 1.966699 133.362500 5.242520 1.051714 
1.412647 3.542746 1.966441 133.359900 5.245877 1.047402 
1.412904 3.542379 1.966290 133.404400 5.128714 1.104661 
1.412895 3.542404 1.966277 133.416000 5.126122 1.102672 
1.412965 3.542330 1.966261 133.418200 5.124656 1.083292 
1.412893 3.542411 1.966437 133.422500 5.120618 1.089159 
1.412685 3.542554 1.966587 133.387100 5.173849 1.070578 
1.412532 3.542579 1.967111 133.423700 5.103333 1.072163 
1.412563 3.542422 1.967342 133.412800 5.109888 1.088807 
1.412545 3.542485 1.967618 133.414400 5.104592 1.105404 
1.412392 3.542846 1.967565 133.366400 5.224041 1.056642 
1.412384 3.542848 1.967648 133.371100 5.220204 1.060537 
1.412435 3.542446 1.967821 133.421100 5.092366 1.111897 
1.412423 3.542452 1.967712 133.419500 5.108932 1.106685 
1.412322 3.542383 1.967552 133.426500 5.098005 1.108909 
1.412156 3.542296 1.967242 133.419500 5.091307 1.109740 
1.411984 3.542208 1.966868 133.426900 5.095379 1.096696 
1.411479 3.542268 1.965844 133.363300 5.225153 1.020385 
1.410986 3.542092 1.965076 133.357300 5.230930 1.028575 
1.410464 3.541883 1.964349 133.324700 5.230568 1.003764 
1.409892 3.541634 1.963340 133.302500 5.242750 0.982221 
1.409579 3.541520 1.962515 133.296200 5.242422 0.967193 
1.409484 3.541242 1.961739 133.303700 5.248702 0.987770 
1.409553 3.540813 1.961172 133.344100 5.162650 1.005742 
1.409620 3.540668 1.960560 133.340700 5.163257 1.027216 
1.409702 3.540519 1.960078 133.327500 5.163860 1.027804 
1.410399 3.540410 1.959623 133.372600 5.147600 0.985696 
1.410589 3.540357 1.959340 133.393000 5.153292 0.969464 
1.410552 3.540197 1.959460 133.371700 5.180903 1.004212 
1.410082 3.540022 1.959551 133.391300 5.122060 1.029165 
1.409238 3.539801 1.959094 133.374400 5.127922 1.065049 
1.408632 3.539645 1.957842 133.327900 5.118420 1.058334 
1.407517 3.539106 1.956866 133.311200 5.118868 0.993748 
1.405828 3.538637 1.956106 133.277800 5.163439 0.910095 
1.404109 3.538214 1.955890 133.276700 5.169996 0.813603 
1.402717 3.538152 1.955691 133.338100 5.124964 0.764954 
1.401511 3.537863 1.955823 133.344100 5.113857 0.770064 
1.400906 3.537665 1.955634 133.337000 5.096559 0.800652 
1.400835 3.537551 1.955227 133.368600 5.071452 0.762867 
1.400900 3.537293 1.955260 133.338500 5.073718 0.807759 
1.400974 3.537153 1.955414 133.327100 5.078329 0.828895 
1.401013 3.537259 1.955754 133.330000 5.068869 0.790670 
1.401105 3.537239 1.956793 133.345400 5.079697 0.814234 
1.401282 3.537511 1.957960 133.325600 5.117141 0.821052 
1.401673 3.537698 1.960080 133.321100 5.014336 0.867020 
1.402159 3.537929 1.962166 133.331300 4.990017 0.954675 
